<?xml version="1.0" encoding="utf-8"?>
<!-- Generator: Adobe Illustrator 26.1.0, SVG Export Plug-In . SVG Version: 6.00 Build 0)  -->
<svg version="1.2" baseProfile="tiny" id="Слой_1"
	 xmlns="http://www.w3.org/2000/svg" xmlns:xlink="http://www.w3.org/1999/xlink" x="0px" y="0px" viewBox="0 0 42.518 52.911"
	 overflow="visible" xml:space="preserve">
<path fill="#390099" d="M2.46,52.911c-0.543-0.312-1.148-0.553-1.615-0.954c-0.662-0.569-0.844-1.396-0.844-2.251
	C-0.001,40.923,0,32.141,0.002,23.358c0-0.153,0.013-0.311,0.051-0.459c0.102-0.407,0.375-0.614,0.793-0.582
	c0.419,0.033,0.671,0.286,0.688,0.7c0.027,0.688,0.014,1.377,0.017,2.066c0.001,0.202,0,0.404,0,0.637c4.214,0,8.373,0,12.6,0
	c0-0.398,0-0.788,0-1.178c0-1.326,0.007-2.652-0.003-3.978c-0.007-0.97-0.573-1.538-1.549-1.54c-3.135-0.007-6.269-0.006-9.404,0
	c-0.89,0.002-1.296,0.312-1.6,1.17c-0.204,0.577-0.569,0.812-1.032,0.665c-0.419-0.133-0.609-0.554-0.46-1.115
	c0.288-1.081,0.979-1.81,2.047-2.131c0.319-0.096,0.426-0.225,0.394-0.531c-0.016-0.153-0.003-0.31-0.003-0.465
	c0.002-1.169,0.334-1.555,1.57-1.749c0-0.168,0-0.349,0-0.529c0-1.722-0.003-3.444,0.001-5.166c0.003-1.221,0.621-1.852,1.834-1.86
	c1.274-0.009,2.549-0.008,3.824,0c1.212,0.008,1.833,0.629,1.841,1.858c0.011,1.705,0.003,3.41,0.003,5.115c0,0.187,0,0.373,0,0.536
	c0.341,0.109,0.654,0.159,0.916,0.303c0.592,0.324,0.713,0.893,0.662,1.51c-0.045,0.547,0.028,0.877,0.681,1.116
	c1.302,0.477,1.836,1.56,1.833,2.937c-0.01,5.149-0.004,10.298-0.004,15.447c0,0.202,0,0.404,0,0.666c0.235,0,0.419,0,0.603,0
	c2.549,0,5.098-0.013,7.647,0.004c2.696,0.018,4.906,1.818,5.423,4.412c0.09,0.452,0.099,0.924,0.101,1.387
	c0.01,2.153-0.057,4.307,0.023,6.457c0.07,1.894-0.551,3.248-2.441,3.85c-6.649,0-13.297,0-19.946,0
	c-0.04-0.029-0.077-0.071-0.122-0.086c-1.627-0.563-2.313-1.509-2.317-3.235c-0.006-2.357-0.01-4.715,0.001-7.072
	c0.015-3.365,2.365-5.708,5.721-5.716c1.136-0.003,2.272-0.006,3.408,0.002c0.341,0.003,0.43-0.115,0.288-0.397
	c-4.185,0-8.341,0-12.485,0c-0.024,0.069-0.044,0.101-0.044,0.132c-0.003,4.457-0.015,8.913,0.001,13.37
	c0.003,0.881,0.598,1.423,1.488,1.446c0.429,0.011,0.805,0.097,0.948,0.546c0.153,0.478-0.116,0.782-0.504,1.009
	C3.149,52.911,2.805,52.911,2.46,52.911z M27.897,44.242c-7.233,0-14.432,0-21.675,0c0,1.85-0.008,3.656,0.003,5.461
	c0.007,1.127,0.562,1.657,1.706,1.658c6.096,0.001,12.192,0.001,18.288,0c1.171,0,1.705-0.527,1.71-1.699
	c0.007-1.653,0.002-3.306,0-4.959C27.928,44.554,27.908,44.404,27.897,44.242z M1.597,27.331c0,2.531,0,4.997,0,7.453
	c4.202,0,8.358,0,12.518,0c0-2.502,0-4.969,0-7.453C9.925,27.331,5.771,27.331,1.597,27.331z M6.27,42.615c7.22,0,14.408,0,21.628,0
	c0.008-0.163,0.026-0.297,0.019-0.43c-0.112-2.241-1.704-3.812-3.979-3.825c-4.579-0.027-9.159-0.033-13.738,0.002
	C7.802,38.38,6.022,40.331,6.27,42.615z M5.679,14.871c1.475,0,2.907,0,4.349,0c0-2.012,0-3.983,0-5.964c-1.468,0-2.9,0-4.349,0
	C5.679,10.91,5.679,12.867,5.679,14.871z M4.128,16.494c0,0.344,0,0.643,0,0.935c2.522,0,5.008,0,7.488,0c0-0.33,0-0.617,0-0.935
	C9.116,16.494,6.645,16.494,4.128,16.494z"/>
<path fill="#390099" d="M30.571,52.911c-0.396-0.221-0.658-0.525-0.51-1.005c0.149-0.484,0.553-0.549,0.995-0.548
	c1.843,0.006,3.686,0.005,5.528,0.001c1.45-0.003,2.294-0.814,2.295-2.262c0.007-10.366,0.013-20.733-0.004-31.099
	c-0.004-2.293-1.519-3.743-3.826-3.746c-4.202-0.006-8.405-0.004-12.607-0.001c-2.445,0.002-3.908,1.468-3.91,3.93
	c-0.005,5.321-0.001,10.642-0.004,15.963c0,0.24,0.05,0.535-0.067,0.706c-0.164,0.239-0.463,0.53-0.705,0.531
	c-0.242,0-0.527-0.296-0.711-0.528c-0.106-0.134-0.064-0.398-0.064-0.603c-0.003-5.373-0.007-10.745,0-16.118
	c0.004-2.789,1.651-4.85,4.268-5.357c0.317-0.061,0.644-0.072,1.033-0.114c0-0.587-0.004-1.167,0.001-1.747
	c0.01-1.013,0.543-1.551,1.561-1.573C24.272,9.332,24.7,9.34,25.161,9.34c0-1.254,0-2.467,0-3.748c-0.55,0-1.095,0.005-1.64-0.001
	c-0.847-0.01-1.23-0.386-1.237-1.232c-0.009-1.05-0.011-2.101,0.001-3.151c0.009-0.805,0.406-1.198,1.219-1.2
	c3.083-0.005,6.166-0.019,9.248,0.007c2.264,0.019,4.38,0.629,6.348,1.749c0.882,0.502,1.762,1.008,2.638,1.52
	c0.659,0.385,0.888,0.844,0.734,1.432c-0.153,0.582-0.593,0.874-1.349,0.875c-2.756,0.003-5.511,0.001-8.267,0.001
	c-0.187,0-0.374,0-0.597,0c0,1.245,0,2.457,0,3.748c0.419,0,0.842-0.005,1.265,0.001c1.075,0.015,1.603,0.551,1.609,1.63
	c0.003,0.549,0.001,1.098,0.001,1.639c0.571,0.111,1.117,0.17,1.635,0.325c2.125,0.638,3.528,2.457,3.649,4.685
	c0.01,0.189,0.015,0.379,0.015,0.568c0.001,10.229-0.004,20.457,0.007,30.686c0.001,1.335-0.348,2.506-1.474,3.289
	c-0.494,0.343-1.115,0.504-1.678,0.747C35.05,52.911,32.81,52.911,30.571,52.911z M23.857,3.997c5.34,0,10.618,0,15.94,0
	c-2.418-1.645-5.008-2.503-7.898-2.451c-2.494,0.045-4.99,0.009-7.485,0.009c-0.183,0-0.365,0-0.557,0
	C23.857,2.411,23.857,3.196,23.857,3.997z M33.559,12.677c0-0.6,0-1.16,0-1.743c-3.245,0-6.467,0-9.69,0c0,0.603,0,1.162,0,1.743
	C27.102,12.677,30.298,12.677,33.559,12.677z M26.763,9.3c1.325,0,2.601,0,3.877,0c0-1.25,0-2.459,0-3.67c-1.311,0-2.588,0-3.877,0
	C26.763,6.865,26.763,8.063,26.763,9.3z"/>
<path fill="#390099" d="M34.763,32.834c-0.053,1.271-0.008,2.556-0.183,3.81c-0.24,1.723-1.215,3.041-2.673,3.991
	c-0.437,0.285-0.899,0.238-1.152-0.106c-0.278-0.377-0.194-0.838,0.276-1.153c1.561-1.047,2.193-2.517,2.141-4.366
	c-0.047-1.635,0.006-3.272-0.015-4.908c-0.026-2.031-1.233-3.697-3.058-4.271c-2.874-0.905-5.704,1.055-5.824,4.071
	c-0.058,1.462-0.013,2.927-0.02,4.391c-0.001,0.188-0.009,0.381-0.055,0.561c-0.1,0.384-0.385,0.58-0.766,0.558
	c-0.378-0.022-0.704-0.246-0.699-0.636c0.031-2.095-0.297-4.214,0.194-6.278c0.693-2.907,3.484-4.742,6.537-4.413
	c2.854,0.307,5.166,2.838,5.235,5.752c0.024,0.998,0.004,1.998,0.004,2.996C34.725,32.833,34.744,32.834,34.763,32.834z"/>
<path fill="#390099" d="M8.636,11.032c0.007,0.431-0.344,0.8-0.765,0.806c-0.435,0.006-0.765-0.331-0.77-0.786
	c-0.005-0.45,0.324-0.804,0.75-0.809C8.268,10.239,8.629,10.602,8.636,11.032z"/>
</svg>
