<?xml version="1.0" encoding="utf-8"?>
<!-- Generator: Adobe Illustrator 26.1.0, SVG Export Plug-In . SVG Version: 6.00 Build 0)  -->
<svg version="1.2" baseProfile="tiny" id="Слой_1"
	 xmlns="http://www.w3.org/2000/svg" xmlns:xlink="http://www.w3.org/1999/xlink" x="0px" y="0px" viewBox="0 0 55.863 47.881"
	 overflow="visible" xml:space="preserve">
<path fill="#FF0054" d="M55.863,47.881c-0.236-0.005-0.473-0.014-0.709-0.014c-14.553-0.001-29.106-0.001-43.659-0.001
	c-0.233,0-0.466,0-0.736,0c0-0.548,0-1.05,0-1.623c14.471,0,28.936,0,43.434,0c0-9.758,0-19.446,0-29.178c-17.5,0-35.005,0-52.547,0
	c0,9.695,0,19.397,0,29.154c2.466,0,4.913,0,7.399,0c0,0.553,0,1.053,0,1.6c-3.009,0-6.013,0-9.045,0c0-10.795,0-21.577,0-32.402
	c0.159-0.012,0.315-0.034,0.471-0.034c18.355-0.002,36.71-0.001,55.065-0.001c0.109,0,0.218,0.009,0.327,0.014
	C55.863,26.225,55.863,37.053,55.863,47.881z"/>
<path fill="#FF0054" d="M8.932,42.925c12.669,0,25.308,0,37.94,0c0.934-2.913,1.517-3.543,4.078-4.389c0-0.168,0-0.348,0-0.529
	c0-4.265-0.007-8.53,0.011-12.795c0.002-0.425-0.124-0.569-0.528-0.694c-1.857-0.573-3.007-1.83-3.427-3.742
	c-0.031-0.141-0.066-0.282-0.109-0.462c-2.22,0-4.434,0-6.693,0c0-0.556,0-1.07,0-1.617c2.803,0,5.594,0,8.45,0
	c-0.209,1.206-0.142,2.34,0.707,3.294c0.85,0.956,1.955,1.186,3.195,1.064c0,5.713,0,11.354,0,17.063
	c-1.198-0.029-2.343,0.144-3.199,1.121c-0.843,0.963-0.912,2.096-0.699,3.316c-13.837,0-27.618,0-41.486,0
	c0.225-1.2,0.155-2.337-0.676-3.294c-0.841-0.97-1.954-1.195-3.206-1.12c0-5.686,0-11.341,0-17.077
	c1.199,0.102,2.314-0.102,3.166-1.053c0.854-0.954,0.944-2.084,0.72-3.313c10.461,0,20.873,0,31.316,0c0,0.524,0,1.026,0,1.583
	c-9.842,0-19.675,0-29.528,0c-0.051,0.178-0.099,0.31-0.128,0.447c-0.419,1.985-1.616,3.253-3.542,3.832
	c-0.249,0.075-0.417,0.113-0.416,0.439c0.01,4.501,0.007,9.002,0.007,13.545C7.194,39.105,8.548,40.571,8.932,42.925z"/>
<path fill="#FF0054" d="M37.355,31.587c0.024,5.204-4.211,9.478-9.409,9.497c-5.192,0.019-9.44-4.217-9.467-9.439
	c-0.026-5.211,4.198-9.468,9.409-9.48C33.11,22.153,37.331,26.354,37.355,31.587z M20.117,31.62
	c0.005,4.316,3.521,7.835,7.819,7.823c4.299-0.012,7.806-3.555,7.782-7.86c-0.025-4.311-3.494-7.774-7.792-7.777
	C23.605,23.802,20.112,27.297,20.117,31.62z"/>
<path fill="#FF0054" d="M44.627,0c2.507,4.184,4.974,8.303,7.48,12.485c-0.465,0.285-0.904,0.554-1.395,0.855
	c-2.222-3.706-4.425-7.382-6.645-11.086C37.752,6.05,31.48,9.82,25.168,13.614c-0.289-0.481-0.548-0.912-0.841-1.402
	C31.09,8.143,37.828,4.09,44.627,0z"/>
<path fill="#FF0054" d="M40.145,6.519c0.436,1.177,1.086,2.136,2.33,2.518c1.221,0.375,2.283-0.025,3.297-0.748
	c0.848,1.415,1.668,2.784,2.514,4.195c-0.465,0.286-0.893,0.549-1.386,0.853c-0.465-0.768-0.945-1.509-1.368-2.282
	c-0.223-0.408-0.411-0.526-0.917-0.403c-2.053,0.496-3.751-0.166-5.134-1.815c-2.622,1.576-5.248,3.155-7.946,4.776
	c-0.276-0.458-0.543-0.899-0.845-1.4C33.84,10.316,36.96,8.437,40.145,6.519z"/>
<path fill="#FF0054" d="M12.316,32.425c-0.518,0-1.002,0-1.537,0c0-0.528,0-1.038,0-1.585c0.493,0,0.991,0,1.537,0
	C12.316,31.345,12.316,31.855,12.316,32.425z"/>
<path fill="#FF0054" d="M45.077,30.846c0,0.52,0,1.034,0,1.569c-0.533,0-1.03,0-1.564,0c0-0.528,0-1.027,0-1.569
	C44.02,30.846,44.533,30.846,45.077,30.846z"/>
</svg>
