<?xml version="1.0" encoding="utf-8"?>
<!-- Generator: Adobe Illustrator 26.1.0, SVG Export Plug-In . SVG Version: 6.00 Build 0)  -->
<svg version="1.2" baseProfile="tiny" id="Слой_1"
	 xmlns="http://www.w3.org/2000/svg" xmlns:xlink="http://www.w3.org/1999/xlink" x="0px" y="0px" viewBox="0 0 60.888 59.82"
	 overflow="visible" xml:space="preserve">
<path fill="#FF5400" d="M60.884,52.624c-0.447,0.829-0.833,1.697-1.353,2.477c-0.837,1.254-2.043,1.322-3.081,0.187
	c-1.565-1.711-3.087-3.46-4.627-5.193c-0.168-0.189-0.339-0.376-0.55-0.61c-0.624,0.721-1.228,1.398-1.798,2.104
	c-0.077,0.096-0.037,0.371,0.046,0.5c0.547,0.849,1.123,1.679,1.686,2.518c1.084,1.616,0.915,3.299-0.469,4.684
	c-0.68,0.681-1.544,0.659-2.325-0.052c-0.952-0.867-1.915-1.722-2.859-2.599c-0.249-0.231-0.431-0.26-0.767-0.121
	c-0.443,0.183-0.957,0.309-1.429,0.279c-0.516-0.033-0.941,0.043-1.401,0.275c-14.684,7.389-32.51-0.777-36.412-16.749
	c-1.86-7.614-0.437-14.689,4.04-21.136c0.079-0.114,0.156-0.229,0.314-0.462c-0.279,0-0.478,0.003-0.677-0.001
	c-1.405-0.026-2.826,0.071-4.212-0.106c-2.385-0.305-4.322-2.213-4.858-4.552c-0.541-2.36,0.386-4.831,2.377-6.226
	C2.887,7.59,3.045,7.324,3.108,6.894C3.431,4.721,5.435,3.006,7.66,2.909c0.294-0.013,0.648-0.157,0.859-0.36
	c2.328-2.248,5.075-3.054,8.195-2.238c3.129,0.819,5.095,2.905,5.998,6.003c0.038,0.131,0.086,0.258,0.134,0.4
	c1.762-0.024,3.275,0.54,4.54,1.761c0.114,0.11,0.362,0.129,0.541,0.115c8.436-0.668,15.568,2.069,21.41,8.184
	c0.177,0.186,0.362,0.374,0.494,0.591c0.245,0.402,0.209,0.805-0.147,1.129c-0.357,0.324-0.76,0.33-1.134,0.032
	c-0.215-0.171-0.388-0.394-0.577-0.598c-1.625-1.755-3.47-3.234-5.545-4.44c-0.031,0.068-0.066,0.109-0.057,0.133
	c0.709,1.826,0.263,3.407-0.996,4.833c-0.717,0.812-1.341,1.695-1.351,2.833c-0.005,0.608,0.068,1.224,0.174,1.825
	c0.443,2.528-0.322,4.611-2.39,6.107c-2.09,1.512-4.383,1.88-6.771,0.695c-1.352-0.671-2.126-1.845-2.611-3.246
	c-0.973-2.81-3.896-4.335-6.764-3.547c-1.657,0.455-2.72,1.556-3.343,3.116c-0.301,0.753-0.561,1.522-0.86,2.276
	c-0.256,0.644-0.724,0.886-1.245,0.678c-0.505-0.201-0.651-0.697-0.403-1.359c0.278-0.741,0.546-1.485,0.835-2.222
	c1.108-2.826,3.56-4.509,6.515-4.48c3.103,0.031,5.937,1.891,6.843,4.706c0.886,2.752,3.154,3.309,5.047,2.783
	c2.48-0.689,3.876-2.809,3.367-5.214c-0.48-2.268-0.092-4.307,1.529-6.008c1.142-1.199,1.144-2.436,0.464-3.861
	c-0.501-1.049-1.182-1.7-2.323-2.054c-3.063-0.951-6.169-1.393-9.389-1.161c0.119,0.494,0.26,0.966,0.343,1.448
	c0.616,3.573-2.175,6.932-5.797,6.953c-3.508,0.02-7.015,0.009-10.523-0.003c-0.367-0.001-0.611,0.093-0.85,0.393
	c-2.934,3.67-4.641,7.842-5.186,12.502c-0.041,0.35,0.039,0.535,0.387,0.665c1.122,0.419,2.254,0.751,3.47,0.663
	c1.248-0.091,2.267-0.638,3.12-1.537c0.187-0.197,0.425-0.482,0.641-0.483c0.331-0.002,0.742,0.125,0.974,0.348
	c0.32,0.307,0.223,0.742-0.068,1.076c-1.456,1.671-3.277,2.556-5.509,2.365c-1.033-0.088-2.048-0.374-3.139-0.584
	c0.01,3.014,0.549,5.953,1.704,8.848c1.111-0.998,2.388-1.511,3.814-1.72c2.977-0.436,5.738,1.045,7,3.777
	c0.406,0.88,0.831,1.752,1.266,2.617c0.365,0.726,0.951,1.139,1.781,1.201c0.948,0.071,1.903,0.11,2.839,0.262
	c2.905,0.472,4.958,2.538,5.582,5.655c0.208,1.038,0.241,2.111,0.362,3.241c3.627-0.043,7.085-0.93,10.297-2.546
	c-0.046-0.604-0.065-1.135-0.14-1.657c-0.022-0.151-0.173-0.338-0.315-0.41c-1.146-0.583-2.298-1.156-3.461-1.704
	c-1.226-0.578-1.504-1.504-0.765-2.652c1.067-1.659,2.142-2.099,4.08-1.672c0.908,0.2,1.818,0.393,2.723,0.607
	c0.319,0.076,0.505,0.012,0.654-0.303c0.36-0.764,0.758-1.51,1.171-2.323c-1.228-0.442-2.395-0.862-3.561-1.281
	c-1.21-0.435-2.425-0.857-3.628-1.309c-1.59-0.598-1.962-1.727-1.002-3.123c0.433-0.63,0.884-1.286,1.46-1.773
	c0.987-0.834,2.188-0.896,3.434-0.669c2.161,0.394,4.332,0.736,6.495,1.121c0.326,0.058,0.444-0.063,0.592-0.317
	c0.455-0.786,0.895-1.589,1.432-2.318c0.845-1.149,1.994-1.92,3.363-2.323c0.447-0.132,0.556-0.339,0.525-0.797
	c-0.257-3.74-1.325-7.225-3.203-10.465c-0.476-0.822-0.45-1.349,0.087-1.649c0.519-0.29,0.981-0.06,1.438,0.726
	c2.015,3.463,3.173,7.19,3.442,11.191c0.01,0.156,0.037,0.31,0.056,0.457c2.205,0.471,2.971,1.53,3.139,4.078
	c0.158,2.405-0.758,4.369-2.33,6.082c-0.386,0.421-0.424,0.718-0.108,1.206c0.935,1.446,1.833,2.918,2.699,4.406
	c0.513,0.881,0.939,1.813,1.404,2.723C60.884,51.752,60.884,52.188,60.884,52.624z M14.507,16.943c2.891,0,5.783,0.007,8.674-0.002
	c2.436-0.008,4.361-2.139,4.16-4.583C27.146,9.983,24.918,8.2,22.569,8.54c-1.012,0.147-1.256-0.042-1.434-1.043
	c-0.492-2.767-2.039-4.675-4.761-5.429c-2.702-0.748-5.049-0.01-6.897,2.131c-0.362,0.419-0.736,0.57-1.288,0.528
	C6.281,4.581,4.838,5.885,4.806,7.792c-0.01,0.599-0.242,0.932-0.758,1.203c-1.761,0.926-2.605,2.855-2.132,4.769
	c0.46,1.863,2.173,3.176,4.155,3.178C8.883,16.945,11.695,16.943,14.507,16.943z M28.992,57.983
	c0.128-1.586-0.049-3.044-0.715-4.413c-0.724-1.486-1.894-2.423-3.54-2.689c-0.662-0.107-1.341-0.139-2.013-0.157
	c-1.964-0.053-3.411-0.879-4.223-2.719c-0.351-0.796-0.763-1.566-1.104-2.366c-1.37-3.221-5.894-3.295-7.89-1.365
	c-0.35,0.338-0.408,0.616-0.158,1.074c2.898,5.283,7.144,9.023,12.767,11.182C24.308,57.372,26.587,57.84,28.992,57.983z
	 M57.473,37.458c-0.062-0.51-0.089-1.027-0.194-1.528c-0.233-1.121-0.698-1.408-1.822-1.215c-2.177,0.374-3.678,1.603-4.67,3.555
	c-2.536,4.99-5.103,9.965-7.651,14.949c-0.133,0.26-0.287,0.559-0.273,0.832c0.016,0.304,0.134,0.723,0.353,0.862
	c0.214,0.136,0.646,0.057,0.92-0.067c0.271-0.123,0.479-0.404,0.686-0.642c1.223-1.401,2.436-2.809,3.654-4.215
	c2.399-2.769,4.802-5.535,7.195-8.309C56.717,40.469,57.508,39.145,57.473,37.458z M57.934,54.294
	c0.308-0.448,0.54-0.791,0.778-1.13c0.509-0.726,0.538-1.501,0.098-2.238c-1.165-1.955-2.371-3.886-3.563-5.825
	c-0.015-0.025-0.069-0.026-0.133-0.047c-0.872,1.007-1.75,2.022-2.658,3.072C54.28,50.18,56.076,52.202,57.934,54.294z
	 M47.888,40.03c-2.411-0.401-4.723-0.828-7.051-1.136c-0.478-0.063-1.104,0.215-1.501,0.534c-0.456,0.367-0.734,0.956-1.145,1.525
	c2.643,0.948,5.198,1.864,7.788,2.794C46.614,42.512,47.225,41.322,47.888,40.03z M38.044,50.063
	c1.265,0.622,2.495,1.228,3.751,1.846c0.387-0.757,0.744-1.455,1.126-2.202c-1.009-0.225-1.946-0.443-2.887-0.642
	C39.003,48.846,38.581,49.055,38.044,50.063z M46.448,55.054c1.066,0.955,2.091,1.873,3.124,2.798
	c0.53-0.587,0.793-1.198,0.38-1.873c-0.576-0.94-1.215-1.842-1.861-2.81C47.535,53.807,47.018,54.4,46.448,55.054z"/>
</svg>
